<?xml version="1.0" standalone="no"?>
<!DOCTYPE svg PUBLIC "-//W3C//DTD SVG 20010904//EN"
 "http://www.w3.org/TR/2001/REC-SVG-20010904/DTD/svg10.dtd">
<svg version="1.0" xmlns="http://www.w3.org/2000/svg"
 width="1240.000000pt" height="1240.000000pt" viewBox="0 0 1240.000000 1240.000000"
 preserveAspectRatio="xMidYMid meet">
<metadata>
Created by potrace 1.14, written by Peter Selinger 2001-2017
</metadata>
<g transform="translate(0.000000,1240.000000) scale(0.100000,-0.100000)"
fill="#000000" stroke="none">
<path d="M5419 12383 c-1 -10 -3 -27 -5 -38 -6 -38 -16 -171 -18 -246 -2 -42
-5 -80 -7 -85 -6 -12 -2 -395 5 -459 13 -118 18 -151 40 -258 22 -104 57 -232
73 -267 3 -8 7 -18 8 -22 2 -5 4 -10 5 -13 1 -3 3 -8 4 -12 1 -5 14 -33 28
-63 55 -115 148 -238 246 -323 59 -51 209 -134 275 -152 4 -2 8 -3 10 -5 1 -1
9 -3 17 -5 8 -1 40 -10 70 -18 62 -18 96 -24 190 -33 36 -4 67 -9 70 -11 5 -5
2 -124 -5 -203 -8 -96 -18 -257 -19 -307 -1 -29 -3 -53 -6 -53 -10 0 -5 -55 5
-62 7 -5 7 -8 0 -8 -6 0 -11 -15 -11 -32 -1 -30 -7 -117 -19 -303 -6 -93 -14
-188 -19 -250 -3 -27 -8 -84 -11 -125 -3 -41 -8 -88 -10 -105 -3 -16 -7 -51
-10 -77 -3 -27 -7 -67 -10 -90 -6 -45 -12 -104 -19 -173 -2 -22 -7 -60 -11
-85 -4 -25 -9 -58 -11 -75 -2 -16 -6 -46 -9 -65 -3 -19 -8 -53 -10 -75 -2 -22
-5 -42 -6 -45 -1 -3 -3 -9 -4 -15 -1 -10 -13 -86 -21 -140 -6 -38 -22 -109
-47 -205 -10 -41 -20 -79 -21 -85 -1 -5 -4 -14 -7 -20 -4 -5 -9 -22 -13 -37
-3 -15 -11 -40 -18 -55 -6 -15 -12 -32 -14 -38 -1 -5 -16 -40 -33 -77 -17 -38
-31 -71 -30 -74 0 -4 -3 -10 -8 -13 -4 -3 -17 -24 -28 -46 -30 -62 -125 -207
-154 -237 -30 -30 -70 -48 -110 -48 -35 0 -100 32 -126 62 -37 43 -105 135
-105 142 0 5 -8 20 -19 34 -29 41 -191 369 -191 387 0 3 -11 28 -25 57 -14 28
-25 60 -25 70 0 10 -4 18 -8 18 -5 0 -9 6 -9 13 0 6 -13 50 -30 97 -38 107
-78 244 -84 287 -1 5 -5 18 -10 31 -5 13 -11 36 -14 53 -3 16 -8 44 -11 62 -9
48 -12 75 -19 147 -4 36 -8 67 -10 69 -3 2 0 12 5 22 6 10 7 20 2 22 -11 8 -3
361 12 482 2 17 7 57 10 90 4 33 14 103 22 155 9 52 18 109 20 125 3 17 10 46
16 65 11 39 79 182 89 190 8 6 64 169 78 225 26 103 29 291 7 405 -21 110 -25
129 -43 190 -9 30 -17 60 -18 65 -1 6 -3 13 -5 18 -1 4 -3 10 -4 15 -13 63
-159 346 -219 424 -10 12 -17 27 -17 31 1 5 -7 16 -17 25 -10 10 -25 29 -33
43 -18 32 -20 35 -181 247 -48 63 -104 122 -116 122 -12 -1 -72 -108 -159
-286 -44 -87 -79 -161 -80 -164 0 -3 -5 -16 -11 -30 -63 -149 -123 -318 -123
-348 0 -10 -4 -22 -9 -27 -5 -6 -12 -30 -15 -55 -9 -65 -11 -74 -17 -85 -7
-13 -4 -197 4 -256 23 -163 120 -349 256 -488 109 -113 236 -189 424 -256 27
-9 51 -24 54 -31 3 -8 -4 -54 -15 -102 -31 -133 -42 -184 -46 -217 -2 -16 -8
-57 -14 -90 -16 -90 -23 -135 -28 -190 -2 -27 -7 -72 -9 -100 -3 -27 -7 -68
-8 -90 -1 -22 -6 -45 -10 -52 -4 -6 -3 -14 3 -18 6 -4 8 -11 4 -16 -3 -6 -7
-66 -9 -135 -1 -68 -5 -127 -8 -130 -7 -7 -75 39 -126 86 -9 8 -39 33 -66 55
-107 86 -505 475 -555 543 -14 19 -32 41 -41 50 -26 26 -89 111 -89 120 0 5
-9 18 -20 30 -40 42 -180 320 -180 355 0 7 -4 17 -9 23 -7 8 -119 299 -126
329 -10 44 -44 115 -55 115 -5 0 -10 -1 -10 -3 0 -6 30 -136 40 -172 6 -22 13
-51 16 -65 2 -14 7 -32 10 -40 3 -8 8 -26 11 -40 6 -32 9 -41 15 -60 3 -8 25
-76 48 -150 24 -74 46 -139 50 -145 4 -5 13 -28 20 -50 11 -35 33 -85 98 -225
39 -83 193 -343 217 -365 6 -5 31 -35 56 -65 67 -83 73 -90 92 -113 10 -12 42
-49 70 -81 29 -33 59 -69 67 -80 8 -12 27 -34 41 -51 24 -26 40 -45 77 -90 61
-75 152 -197 152 -204 0 -5 4 -11 9 -13 4 -1 41 -52 82 -113 40 -60 76 -112
80 -115 4 -3 9 -12 11 -20 2 -8 10 -22 19 -32 8 -10 24 -34 36 -55 11 -21 44
-78 73 -128 44 -77 162 -300 166 -315 0 -3 15 -36 33 -75 32 -67 53 -115 56
-125 0 -3 6 -15 13 -27 7 -13 10 -23 6 -23 -3 0 -2 -6 3 -12 10 -12 81 -215
88 -248 2 -8 10 -40 19 -70 14 -50 25 -102 30 -140 2 -8 5 -24 9 -35 3 -11 9
-38 12 -60 4 -22 9 -51 11 -65 3 -14 6 -41 8 -60 2 -19 6 -55 10 -80 15 -101
18 -155 18 -380 1 -245 -3 -300 -27 -495 -2 -16 -6 -48 -9 -70 -8 -60 -16
-118 -21 -140 -2 -11 -6 -29 -8 -40 -2 -11 -7 -36 -11 -55 -42 -230 -52 -258
-104 -288 -26 -14 -55 -3 -71 27 -12 22 -54 199 -53 224 0 9 -2 17 -6 17 -4 0
-8 10 -9 23 -2 34 -9 64 -33 157 -12 47 -24 93 -26 103 -2 10 -6 28 -10 39 -3
11 -7 30 -9 41 -3 20 -18 78 -68 267 -24 89 -108 334 -119 347 -6 7 -8 13 -5
13 13 0 -185 416 -227 475 -11 17 -19 30 -17 30 3 0 -2 11 -11 25 -43 70 -112
188 -122 207 -6 13 -14 23 -18 23 -5 0 -8 6 -8 14 0 8 -3 16 -7 18 -11 4 -93
128 -93 139 0 5 -4 9 -8 9 -5 0 -15 12 -23 28 -8 15 -22 36 -31 46 -10 11 -18
26 -18 33 0 7 -4 13 -10 13 -5 0 -10 7 -10 15 0 8 -4 15 -9 15 -5 0 -11 8 -15
18 -6 18 -27 53 -37 62 -26 23 -211 372 -302 570 -67 146 -106 231 -106 233 0
1 -5 16 -12 32 -7 17 -13 35 -15 40 -2 6 -21 53 -42 105 -94 230 -166 462
-178 580 -25 233 -33 379 -39 700 -3 140 -6 260 -6 265 -1 6 0 15 1 20 1 6 3
71 4 145 1 75 6 142 11 150 5 8 29 41 53 73 70 92 137 233 158 328 22 106 25
331 5 415 -6 27 -13 58 -15 69 -16 80 -113 302 -143 327 -7 6 -13 15 -13 20 0
5 -5 14 -10 21 -6 7 -29 37 -50 67 -90 124 -147 189 -294 333 -68 67 -158 154
-201 192 -42 39 -97 89 -122 113 -48 44 -55 45 -60 10 -2 -11 -15 -59 -29
-107 -14 -47 -27 -95 -29 -106 -1 -11 -3 -20 -4 -20 -2 0 -4 -8 -6 -17 -2 -9
-8 -40 -15 -70 -6 -29 -13 -66 -16 -83 -2 -16 -6 -39 -8 -51 -27 -132 -26
-528 0 -617 3 -11 7 -29 8 -40 3 -25 33 -132 45 -162 4 -11 30 -65 57 -119
100 -204 266 -365 511 -497 108 -59 104 -50 98 -229 -2 -69 -4 -147 -4 -175
-1 -27 -1 -59 -1 -70 -5 -234 -4 -614 2 -627 5 -10 5 -18 0 -18 -5 0 -8 -12
-6 -27 7 -60 13 -333 8 -333 -3 0 -21 15 -40 34 -19 19 -53 50 -76 68 -22 18
-48 41 -57 51 -8 9 -21 17 -27 17 -7 0 -14 4 -16 8 -1 4 -25 23 -53 42 -27 19
-54 40 -58 45 -4 6 -5 39 -2 75 11 133 10 227 -3 310 -13 88 -67 260 -84 271
-5 3 -9 10 -9 15 1 13 -68 129 -91 154 -10 11 -17 20 -14 20 7 0 -55 70 -122
136 -71 70 -183 151 -269 193 -51 25 -182 76 -223 87 -8 2 -33 8 -55 14 -22 6
-49 13 -60 15 -11 2 -40 9 -65 16 -62 15 -69 17 -123 25 -26 3 -47 11 -47 16
0 5 -4 7 -9 4 -7 -5 -72 4 -138 18 -12 3 -48 7 -80 11 -32 3 -71 8 -88 11 -16
2 -58 6 -93 8 l-62 5 6 -47 c3 -26 9 -63 14 -82 5 -19 11 -51 14 -71 3 -20 10
-48 15 -63 6 -14 9 -26 6 -26 -2 0 2 -18 10 -40 8 -22 15 -44 16 -48 24 -108
158 -418 218 -508 17 -25 31 -48 31 -52 0 -7 73 -112 122 -177 26 -33 141
-150 179 -180 123 -100 295 -186 418 -210 9 -1 35 -8 57 -14 98 -26 247 -29
331 -6 75 21 74 20 103 32 35 14 98 -14 215 -97 49 -34 195 -173 195 -185 0
-4 13 -25 28 -48 38 -57 60 -107 120 -272 27 -77 60 -167 72 -200 12 -33 23
-67 25 -75 2 -8 4 -15 5 -15 1 0 3 -7 5 -15 2 -8 18 -53 35 -100 28 -73 49
-135 56 -162 1 -5 3 -10 4 -13 1 -3 3 -8 5 -12 1 -5 7 -21 14 -38 7 -16 14
-37 15 -45 1 -8 7 -26 13 -40 30 -73 75 -212 70 -217 -3 -3 -39 14 -79 37 -40
24 -83 48 -95 54 -13 6 -23 14 -23 19 0 4 -5 7 -10 7 -6 0 -66 31 -133 69
-183 104 -346 189 -616 322 -223 110 -267 131 -296 140 -5 1 -36 15 -67 31
-52 26 -105 49 -118 53 -3 0 -20 9 -37 18 -18 10 -35 17 -38 17 -3 0 -21 7
-41 15 -49 20 -78 25 -94 15 -35 -22 92 -133 294 -259 54 -33 102 -61 106 -61
5 0 10 -4 12 -8 2 -4 24 -20 50 -35 26 -15 54 -34 62 -43 9 -8 16 -13 16 -10
0 5 135 -82 175 -111 6 -5 39 -28 75 -52 36 -24 92 -62 125 -85 33 -22 66 -46
73 -53 7 -7 26 -20 42 -30 17 -9 30 -21 30 -25 0 -4 5 -8 11 -8 12 0 92 -59
97 -72 2 -5 8 -8 13 -8 8 0 87 -55 119 -83 8 -8 53 -43 99 -78 236 -180 279
-216 391 -329 104 -104 125 -128 186 -210 81 -111 94 -129 94 -136 0 -4 6 -15
14 -23 38 -43 148 -282 191 -415 25 -74 54 -183 61 -226 3 -14 7 -32 10 -41 2
-9 7 -34 9 -55 3 -22 8 -52 11 -69 4 -16 8 -48 10 -70 1 -22 4 -41 5 -42 3 -5
5 -15 14 -78 10 -71 13 -90 19 -130 3 -16 7 -46 10 -65 3 -19 8 -51 11 -70 3
-19 8 -53 11 -75 3 -22 12 -76 20 -120 8 -44 16 -89 18 -100 10 -57 39 -175
52 -208 7 -20 14 -39 13 -42 -1 -9 43 -148 58 -185 36 -85 47 -113 45 -122 -1
-5 2 -8 8 -8 6 0 9 -3 8 -7 -1 -5 19 -52 45 -107 26 -54 47 -102 47 -107 0 -5
5 -9 10 -9 6 0 10 -5 10 -10 0 -6 49 -111 109 -233 127 -259 139 -287 179
-427 33 -112 49 -194 58 -287 8 -76 12 -276 6 -286 -2 -5 -6 -36 -7 -70 -4
-84 -32 -265 -56 -361 -10 -44 -17 -81 -14 -84 3 -3 1 -10 -4 -16 -8 -9 -21
-52 -46 -146 -18 -71 -98 -273 -151 -386 -20 -43 -37 -82 -36 -86 1 -5 -3 -8
-9 -8 -5 0 -8 -4 -5 -9 4 -5 3 -11 -1 -13 -5 -1 -17 -21 -28 -43 -49 -98 -226
-379 -274 -434 -12 -13 -21 -27 -21 -30 0 -4 -12 -20 -27 -37 -16 -17 -48 -57
-73 -89 -51 -66 -297 -317 -380 -388 -30 -25 -66 -56 -80 -68 -97 -83 -460
-298 -460 -272 0 4 -4 3 -8 -2 -8 -12 -210 -78 -287 -94 -112 -24 -198 -35
-277 -35 -32 -1 -58 -3 -58 -6 0 -3 -25 -5 -55 -5 -30 0 -55 3 -55 8 0 4 -5 5
-12 1 -11 -7 -69 -7 -130 0 -51 6 -29 -15 60 -57 48 -22 89 -41 92 -42 3 -1
12 -4 20 -8 31 -12 116 -40 130 -42 8 -1 26 -7 40 -12 14 -6 31 -8 38 -6 6 3
12 1 12 -4 0 -5 10 -9 23 -8 12 1 35 -2 52 -7 105 -29 515 -31 646 -2 13 3 38
7 54 10 17 3 53 12 80 20 28 9 61 18 75 20 56 12 305 129 402 190 21 13 40 24
43 24 9 0 180 114 183 123 2 4 10 7 18 7 8 0 14 5 14 10 0 6 7 10 15 10 8 0
15 3 15 8 0 4 33 32 72 62 40 30 80 62 89 70 9 8 47 42 85 75 83 73 186 176
234 234 19 23 43 52 53 64 27 32 120 175 148 227 13 25 27 47 30 50 11 10 98
210 104 239 2 9 9 30 16 46 6 17 13 35 15 40 1 6 12 51 24 100 46 188 52 202
85 195 6 -1 15 -3 22 -4 35 -6 60 -50 69 -121 1 -11 3 -20 4 -20 3 0 10 -40
15 -83 3 -24 8 -48 11 -53 3 -5 7 -25 10 -43 2 -18 10 -52 18 -74 9 -23 13
-42 10 -42 -2 0 2 -14 11 -30 9 -17 13 -30 10 -30 -4 0 1 -10 9 -22 9 -12 16
-28 16 -36 0 -17 103 -225 120 -242 3 -3 23 -32 45 -65 38 -57 65 -92 93 -121
6 -7 12 -17 12 -23 0 -6 4 -11 8 -11 9 0 57 -39 113 -93 17 -15 33 -27 37 -27
4 0 19 -11 34 -25 15 -14 31 -25 37 -25 5 0 11 -4 13 -8 4 -12 146 -90 378
-208 63 -33 118 -63 122 -69 4 -5 8 -6 8 -1 0 5 6 4 13 -2 42 -35 667 -331
667 -316 0 3 8 0 18 -5 20 -11 154 -40 227 -49 67 -9 307 -8 375 1 113 15 246
39 263 48 9 6 17 7 17 5 0 -3 18 1 40 9 22 8 41 14 43 14 9 -3 107 28 184 57
100 38 114 60 40 60 -52 1 -233 13 -267 18 -14 3 -43 7 -65 10 -81 12 -99 15
-262 51 -12 3 -35 10 -50 16 -16 6 -30 10 -33 10 -41 -6 -490 188 -490 212 0
4 -5 7 -11 7 -15 0 -128 69 -159 98 -14 12 -28 22 -31 22 -3 0 -17 9 -30 20
-13 11 -37 30 -53 42 -95 76 -238 215 -321 312 -22 26 -57 66 -77 89 -21 23
-38 45 -38 48 0 4 -13 22 -30 40 -16 19 -32 42 -36 52 -3 9 -10 17 -15 17 -5
0 -9 7 -9 15 0 8 -4 15 -8 15 -5 0 -17 16 -28 35 -10 19 -22 35 -26 35 -5 0
-8 5 -8 11 0 6 -15 34 -33 62 -65 100 -153 265 -149 280 1 4 -2 7 -8 7 -5 0
-10 6 -10 12 0 7 -11 35 -24 63 -14 27 -39 84 -56 125 -17 41 -35 83 -41 94
-6 10 -12 26 -14 35 -2 9 -22 64 -45 124 -55 145 -134 395 -176 562 -3 11 -6
25 -8 30 -2 6 -6 28 -11 50 -4 22 -10 44 -13 49 -3 6 -7 19 -8 30 -1 12 -7 46
-13 76 -7 30 -14 66 -17 80 -2 14 -7 36 -9 50 -3 14 -8 39 -10 55 -3 17 -10
55 -17 85 -6 30 -12 71 -13 90 -1 19 -4 35 -5 35 -1 0 -3 20 -5 45 -2 25 -4
45 -5 45 -1 0 -3 11 -5 25 -1 14 -6 57 -10 95 -4 39 -9 95 -11 125 -2 30 -6
84 -9 120 -3 36 -8 211 -11 390 -3 178 -7 327 -9 331 -3 3 -2 9 2 13 3 3 7 43
9 88 2 72 6 127 19 288 6 81 32 299 39 336 5 24 13 76 22 132 3 20 7 44 9 52
3 8 7 33 11 55 3 22 13 69 21 105 8 36 17 76 19 90 4 21 13 64 20 93 1 4 3 9
4 12 1 3 4 10 5 15 1 6 4 13 5 18 1 4 2 10 2 13 -1 6 46 171 71 249 6 19 11
37 12 40 1 3 5 14 9 25 57 149 73 189 100 245 16 36 31 67 31 70 3 15 41 85
48 88 4 2 7 10 7 17 0 11 47 97 90 165 6 8 19 32 30 53 11 20 25 37 30 37 6 0
10 6 10 13 0 10 104 156 148 208 205 239 384 398 621 548 124 79 341 176 416
187 11 1 22 3 25 5 3 1 10 3 15 4 6 2 12 4 15 5 10 3 45 10 75 14 17 3 64 9
105 16 41 6 174 13 295 16 121 2 243 6 270 9 28 3 57 6 65 6 41 1 250 30 320
44 13 2 42 7 65 10 22 3 64 13 92 21 29 8 55 14 58 14 3 -1 35 15 71 34 l65
36 59 -30 c60 -30 120 -53 175 -66 38 -9 242 -9 275 -1 14 4 40 10 58 13 17 3
32 10 32 16 0 5 4 7 8 4 11 -6 144 61 208 105 77 53 178 155 233 234 43 62
121 209 121 228 0 3 5 18 12 34 6 15 12 33 14 38 2 6 19 53 38 105 66 182 176
546 193 639 2 14 6 28 8 31 2 4 7 21 10 38 3 17 16 83 30 148 25 116 24 147
-7 128 -7 -5 -15 -9 -18 -9 -12 -2 -168 -55 -200 -68 -66 -27 -75 -30 -90 -33
-9 -2 -34 -11 -55 -20 -22 -10 -42 -18 -45 -19 -9 -2 -175 -66 -205 -80 -16
-7 -75 -32 -130 -55 -263 -111 -441 -218 -570 -345 -56 -56 -137 -164 -160
-216 -8 -19 -19 -41 -24 -49 -16 -28 -46 -109 -57 -155 -46 -187 -40 -345 17
-480 7 -16 13 -33 13 -37 1 -3 4 -10 9 -14 4 -4 7 -16 7 -26 0 -10 -3 -18 -7
-19 -20 -2 -61 -8 -88 -14 -122 -25 -618 -26 -880 -1 -22 2 -57 5 -77 5 -64 2
-88 45 -59 106 5 11 22 58 37 105 15 47 31 90 35 95 4 6 12 30 19 54 6 24 16
55 22 70 6 14 12 32 14 39 1 8 6 21 10 30 4 9 8 19 9 22 1 3 4 12 8 20 3 8 16
44 28 80 12 36 27 70 33 77 6 6 40 14 76 17 36 3 79 8 95 11 17 3 39 6 50 8
11 1 22 4 25 7 3 4 23 11 46 18 75 22 180 101 272 205 39 44 162 223 162 236
0 5 7 14 15 21 8 7 13 16 10 20 -3 5 2 15 10 24 9 8 15 18 15 21 -1 3 8 27 20
53 37 80 39 84 70 182 26 79 93 327 104 387 2 10 9 38 16 63 14 53 20 85 23
123 1 15 4 27 7 27 3 0 6 8 6 18 0 9 9 62 18 117 10 55 20 114 22 130 5 42 14
106 18 130 8 47 -15 39 -327 -104 -37 -17 -70 -30 -73 -30 -4 0 -10 -3 -13 -8
-3 -4 -28 -19 -56 -33 -27 -13 -67 -35 -87 -47 -21 -13 -44 -23 -53 -23 -8 0
-15 -4 -15 -9 0 -5 -12 -14 -27 -21 -36 -15 -84 -41 -133 -74 -22 -14 -42 -26
-46 -26 -12 0 -190 -140 -239 -188 -137 -135 -214 -241 -292 -402 -42 -89 -65
-151 -58 -158 3 -3 1 -10 -4 -16 -11 -15 -31 -128 -34 -196 -4 -69 17 -181 42
-235 23 -48 86 -127 95 -118 3 4 6 1 6 -5 0 -14 73 -62 95 -62 8 0 15 -4 15
-10 0 -5 7 -10 16 -10 19 0 15 -16 -29 -115 -29 -65 -164 -333 -218 -434 -47
-86 -123 -147 -199 -158 -14 -2 -65 -13 -115 -24 -49 -12 -99 -23 -111 -25
-12 -2 -57 -16 -100 -30 -43 -14 -83 -27 -89 -28 -5 -1 -27 -10 -49 -19 -21
-9 -40 -17 -43 -17 -11 0 -219 -104 -224 -112 -3 -5 -10 -10 -15 -9 -13 0
-195 -114 -221 -138 -12 -12 -25 -21 -27 -21 -6 0 -10 -3 -111 -87 -38 -32
-77 -66 -86 -75 -9 -10 -19 -18 -22 -18 -8 0 -102 -96 -186 -189 -36 -41 -73
-81 -81 -90 -23 -24 -153 -200 -186 -251 -16 -25 -31 -47 -34 -50 -4 -3 -41
-64 -83 -136 -90 -153 -113 -180 -132 -164 -10 9 -13 32 -10 88 2 42 6 88 9
102 3 14 7 36 10 50 14 76 91 283 168 449 54 116 71 156 72 161 1 6 21 52 59
140 11 25 20 51 20 58 0 6 4 12 9 12 4 0 8 5 8 11 0 5 8 29 18 52 11 23 43 98
73 167 29 69 57 127 61 128 5 2 6 7 3 12 -3 5 2 16 11 24 8 9 12 16 9 16 -4 0
0 11 9 24 8 14 24 40 35 59 32 57 108 156 115 150 3 -4 6 -1 6 5 0 20 140 152
163 154 12 1 74 2 137 3 284 4 478 123 638 391 42 69 104 189 106 204 1 3 9
28 19 55 22 58 28 78 28 85 1 3 5 11 11 18 6 6 8 12 4 12 -3 0 -1 12 5 27 23
62 58 256 64 363 2 30 4 55 5 55 1 0 4 78 7 173 l5 172 -74 -25 c-40 -15 -82
-30 -93 -35 -11 -5 -54 -23 -95 -40 -124 -51 -377 -191 -454 -250 -45 -35
-173 -147 -182 -160 -7 -8 -25 -29 -40 -46 -16 -17 -41 -46 -56 -65 -29 -36
-128 -209 -132 -231 -2 -7 -9 -26 -15 -43 -13 -32 -16 -41 -31 -118 -10 -49
-7 -233 5 -322 l7 -50 -116 -120 c-132 -137 -118 -144 -120 55 -1 63 0 119 2
123 3 5 6 43 8 85 6 119 10 158 18 171 4 6 5 14 2 19 -2 4 0 30 5 57 6 28 12
61 14 75 16 99 45 165 134 310 184 301 276 473 297 555 1 6 9 30 17 55 64 193
83 408 63 710 -8 110 -14 171 -27 255 -5 33 -10 67 -10 75 -1 8 -6 38 -11 65
-5 28 -11 66 -14 85 -2 19 -9 55 -15 80 -6 25 -15 65 -21 90 -5 25 -17 63 -25
85 -8 22 -14 40 -13 40 1 0 -2 8 -5 18 -4 9 -11 17 -17 17 -5 0 -6 -5 -3 -10
4 -6 8 -22 11 -36 3 -14 11 -54 19 -88 15 -67 19 -86 34 -196 22 -159 32 -291
35 -478 1 -79 -1 -145 -4 -147 -3 -2 -5 -31 -5 -64 0 -34 -4 -61 -8 -61 -5 0
-6 -3 -4 -7 8 -13 -30 -174 -63 -268 -49 -136 -167 -372 -192 -383 -5 -2 -8
-10 -8 -17 0 -7 -11 -27 -25 -43 -14 -17 -25 -35 -25 -41 0 -6 -4 -11 -10 -11
-5 0 -10 -5 -10 -10 0 -10 -36 -67 -50 -80 -3 -3 -23 -29 -44 -57 -21 -29 -39
-53 -41 -53 -7 0 4 59 35 180 18 69 34 139 36 155 7 44 7 145 -1 185 -3 19 -8
49 -11 65 -4 29 -17 80 -49 195 -18 65 -13 94 28 175 16 33 43 85 58 116 43
86 63 192 63 339 0 80 -8 164 -20 202 -4 15 -12 46 -18 75 -1 7 -5 16 -9 19
-4 4 -7 13 -7 20 0 30 -102 223 -122 232 -5 2 -8 8 -8 14 0 21 -149 194 -244
285 -53 51 -96 89 -96 87 0 -3 -7 2 -16 10 -9 9 -32 29 -52 44 -21 15 -42 32
-48 37 -6 6 -56 42 -110 80 -53 39 -105 77 -113 85 -9 8 -41 32 -70 54 -30 21
-59 43 -65 48 -6 4 -38 29 -71 54 -33 25 -67 50 -75 57 -37 28 -109 77 -114
77 -3 0 -7 -8 -7 -17z"/>
</g>
</svg>
